# File created by Blade
# Date/Time:  Wed Jan 21 14:37:15 2015
# Frame Rate: 120.000 fps
#------------------------------------------------------
:FULLY-SPECIFIED
:DEGREES
505
root 18.650158 35.521612 -22.095911 -172.732304 -1.343778 -178.140793
Spine -21.964481 -14.961976 5.377162
Head 7.105249 10.471044 3.355435
LeftShoulder 106.555566 -75.507895 -61.546224
LeftArm 48.438128 44.034793 -95.949298
LeftForeArm 36.480526 -0.000000 70.647243
LeftHand -3.142523 -0.000000 -9.654479
LeftHandThumb1 -26.253704 0.000000 33.147579
RightShoulder 12.313753 2.987108 6.177347
RightArm 47.408392 -14.108637 59.015347
RightForeArm 35.074046 0.000000 132.770525
RightHand 5.444809 -0.000000 -4.773250
RightHandThumb1 -24.326973 -0.000000 -32.862282
LeftUpLeg 0.859212 13.244073 2.044774
LeftLeg -6.391022 -0.000000 0.000000
LeftFoot -20.481163 29.445013 -11.927727
LeftToeBase 26.880712 -0.000000 -0.000000
RightUpLeg 0.018431 -9.236431 1.859428
RightLeg -3.705277 -0.000000 0.000000
RightFoot -20.255358 -25.194200 14.841758
RightToeBase 23.552278 -0.000000 -0.000000
506
root 18.650348 35.521483 -22.098365 -172.714848 -1.290791 -178.133237
Spine -22.000330 -15.001912 5.420489
Head 7.142124 10.471672 3.368338
LeftShoulder 106.937144 -75.529109 -61.897133
LeftArm 48.245152 43.913290 -96.143529
LeftForeArm 36.497307 -0.000000 71.338945
LeftHand -3.177792 -0.000000 -9.656219
LeftHandThumb1 -26.253704 0.000000 33.147579
RightShoulder 12.292194 3.050160 6.163592
RightArm 47.380152 -14.082805 58.995020
RightForeArm 34.980446 0.000000 132.783373
RightHand 5.260103 -0.000000 -4.864185
RightHandThumb1 -24.326973 -0.000000 -32.862282
LeftUpLeg 0.861768 13.268600 2.046749
LeftLeg -6.403253 -0.000000 0.000000
LeftFoot -20.487933 29.465283 -11.930272
LeftToeBase 26.935100 -0.000000 -0.000000
RightUpLeg -0.001483 -9.199004 1.865037
RightLeg -3.704023 -0.000000 0.000000
RightFoot -20.248353 -25.177895 14.854956
RightToeBase 23.540427 -0.000000 -0.000000
507
root 18.650183 35.520705 -22.099596 -172.700368 -1.235626 -178.132756
Spine -22.026991 -15.049472 5.468920
Head 7.148789 10.530733 3.375411
LeftShoulder 107.132445 -75.592326 -62.082855
LeftArm 48.113140 43.792674 -96.296146
LeftForeArm 36.407968 -0.000000 72.009748
LeftHand -3.217526 -0.000000 -9.509166
LeftHandThumb1 -26.253704 0.000000 33.147579
RightShoulder 12.161191 2.864602 6.191973
RightArm 47.733295 -13.991651 58.781093
RightForeArm 35.057069 -0.000000 132.671672
RightHand 5.221343 0.000000 -4.912653
RightHandThumb1 -24.326973 -0.000000 -32.862282
LeftUpLeg 0.860891 13.283303 2.040236
LeftLeg -6.407272 -0.000000 0.000000
LeftFoot -20.510042 29.499819 -11.950453
LeftToeBase 26.916712 -0.000000 -0.000000
RightUpLeg -0.012746 -9.189604 1.860811
RightLeg -3.716006 -0.000000 0.000000
RightFoot -20.227517 -25.137946 14.821098
RightToeBase 23.576113 -0.000000 -0.000000
508
root 18.650253 35.519975 -22.101753 -172.703045 -1.180135 -178.129897
Spine -22.028061 -15.079591 5.516600
Head 7.142960 10.557222 3.326410
LeftShoulder 107.434111 -75.651036 -62.390285
LeftArm 47.930094 43.650873 -96.468244
LeftForeArm 36.204772 0.000000 72.696509
LeftHand -3.239839 -0.000000 -9.633729
LeftHandThumb1 -26.253704 0.000000 33.147579
RightShoulder 12.032756 2.647385 6.214352
RightArm 48.115799 -13.908786 58.531832
RightForeArm 35.088986 -0.000000 132.609599
RightHand 5.090413 -0.000000 -5.101925
RightHandThumb1 -24.326973 -0.000000 -32.862282
LeftUpLeg 0.881183 13.303946 2.040662
LeftLeg -6.416031 -0.000000 0.000000
LeftFoot -20.519986 29.531448 -11.961733
LeftToeBase 26.905667 -0.000000 -0.000000
RightUpLeg -0.010209 -9.158699 1.857227
RightLeg -3.718144 -0.000000 0.000000
RightFoot -20.225703 -25.087823 14.883436
RightToeBase 23.446528 -0.000000 -0.000000
509
root 18.650063 35.519475 -22.103633 -172.698806 -1.127127 -178.126444
Spine -22.040338 -15.096260 5.546777
Head 7.169667 10.517556 3.287176
LeftShoulder 107.649886 -75.672833 -62.607838
LeftArm 47.791903 43.532019 -96.585484
LeftForeArm 36.007399 -0.000000 73.317162
LeftHand -3.401841 0.000000 -9.606732
LeftHandThumb1 -26.253704 0.000000 33.147579
RightShoulder 11.991362 2.734724 6.212484
RightArm 48.081576 -13.930624 58.496028
RightForeArm 35.214657 -0.000000 132.585368
RightHand 5.023904 -0.000000 -5.119090
RightHandThumb1 -24.326973 -0.000000 -32.862282
LeftUpLeg 0.891790 13.320360 2.041305
LeftLeg -6.418190 -0.000000 0.000000
LeftFoot -20.533863 29.553374 -11.969892
LeftToeBase 26.892807 -0.000000 -0.000000
RightUpLeg -0.018942 -9.137711 1.857722
RightLeg -3.712294 -0.000000 0.000000
RightFoot -20.227318 -25.103383 14.806825
RightToeBase 23.573879 -0.000000 -0.000000
510
root 18.650312 35.519019 -22.105423 -172.700432 -1.074693 -178.121486
Spine -22.033393 -15.104987 5.558862
Head 7.142957 10.491234 3.324155
LeftShoulder 107.960103 -75.684465 -62.882016
LeftArm 47.596720 43.345825 -96.755427
LeftForeArm 35.704992 -0.000000 73.849118
LeftHand -3.375203 -0.000000 -9.555417
LeftHandThumb1 -26.253704 0.000000 33.147579
RightShoulder 11.973961 2.885189 6.185776
RightArm 47.938975 -13.982644 58.506544
RightForeArm 35.326391 -0.000000 132.609976
RightHand 4.936409 0.000000 -5.198153
RightHandThumb1 -24.326973 -0.000000 -32.862282
LeftUpLeg 0.903589 13.353574 2.043785
LeftLeg -6.416007 -0.000000 0.000000
LeftFoot -20.545010 29.573360 -11.971147
LeftToeBase 26.868556 -0.000000 -0.000000
RightUpLeg -0.018413 -9.098536 1.857489
RightLeg -3.714657 -0.000000 0.000000
RightFoot -20.227268 -25.088634 14.805458
RightToeBase 23.616250 -0.000000 -0.000000
511
root 18.650816 35.518217 -22.107550 -172.709911 -1.039995 -178.119438
Spine -22.024120 -15.124072 5.562229
Head 7.154175 10.450485 3.340174
LeftShoulder 107.611389 -75.680196 -62.559965
LeftArm 47.675919 43.198710 -96.717664
LeftForeArm 35.122453 -0.000000 74.218135
LeftHand -3.186667 0.000000 -9.616075
LeftHandThumb1 -26.253704 0.000000 33.147579
RightShoulder 11.948944 3.048336 6.144844
RightArm 47.769480 -14.058462 58.517118
RightForeArm 35.461698 -0.000000 132.647861
RightHand 4.814592 -0.000000 -5.387110
RightHandThumb1 -24.326973 -0.000000 -32.862282
LeftUpLeg 0.923136 13.352499 2.047896
LeftLeg -6.413438 -0.000000 0.000000
LeftFoot -20.567883 29.602194 -11.982849
LeftToeBase 26.895683 -0.000000 -0.000000
RightUpLeg -0.007142 -9.088123 1.854699
RightLeg -3.717356 -0.000000 0.000000
RightFoot -20.223494 -25.075144 14.793447
RightToeBase 23.582905 -0.000000 -0.000000
512
root 18.650699 35.517935 -22.110105 -172.729294 -0.998405 -178.118332
Spine -21.994715 -15.136419 5.562597
Head 7.134479 10.418704 3.343810
LeftShoulder 108.556963 -75.674917 -63.452715
LeftArm 47.131306 42.869599 -97.244624
LeftForeArm 34.862997 0.000000 74.587220
LeftHand -2.771215 -0.000000 -10.020546
LeftHandThumb1 -26.253704 0.000000 33.147579
RightShoulder 11.923256 3.156485 6.100637
RightArm 47.637598 -14.083091 58.554051
RightForeArm 35.844334 -0.000000 132.671598
RightHand 4.831278 -0.000000 -5.320968
RightHandThumb1 -24.326973 -0.000000 -32.862282
LeftUpLeg 0.953182 13.364654 2.052692
LeftLeg -6.409626 -0.000000 0.000000
LeftFoot -20.591137 29.611211 -12.014719
LeftToeBase 26.884984 -0.000000 -0.000000
RightUpLeg 0.013280 -9.065750 1.848699
RightLeg -3.718877 -0.000000 0.000000
RightFoot -20.219244 -25.063006 14.768313
RightToeBase 23.599307 -0.000000 -0.000000
513
root 18.650853 35.517346 -22.112062 -172.743553 -0.983161 -178.112186
Spine -21.977598 -15.175305 5.585815
Head 7.132370 10.391222 3.287171
LeftShoulder 108.754225 -75.688138 -63.676027
LeftArm 47.056014 42.682000 -97.277217
LeftForeArm 34.121835 -0.000000 74.814221
LeftHand -2.746832 0.000000 -9.689789
LeftHandThumb1 -26.253704 0.000000 33.147579
RightShoulder 11.873454 3.195121 6.031561
RightArm 47.623595 -14.138295 58.527482
RightForeArm 35.983785 0.000000 132.718892
RightHand 4.586074 0.000000 -5.599068
RightHandThumb1 -24.326973 -0.000000 -32.862282
LeftUpLeg 0.968152 13.356799 2.062887
LeftLeg -6.397156 -0.000000 0.000000
LeftFoot -20.604461 29.630973 -12.000787
LeftToeBase 26.876395 -0.000000 -0.000000
RightUpLeg 0.026155 -9.066051 1.849690
RightLeg -3.710632 -0.000000 0.000000
RightFoot -20.217658 -25.041567 14.768987
RightToeBase 23.611697 -0.000000 -0.000000
514
root 18.650255 35.516608 -22.114537 -172.764623 -0.954049 -178.112149
Spine -21.943138 -15.201331 5.590159
Head 7.099127 10.383942 3.270920
LeftShoulder 109.059751 -75.734351 -63.996583
LeftArm 46.870614 42.453818 -97.475248
LeftForeArm 33.541042 -0.000000 74.959722
LeftHand -2.635148 0.000000 -9.626747
LeftHandThumb1 -26.253704 0.000000 33.147579
RightShoulder 11.788793 3.213063 5.966446
RightArm 47.638008 -14.197163 58.477851
RightForeArm 36.014080 -0.000000 132.763652
RightHand 4.318712 -0.000000 -5.869285
RightHandThumb1 -24.326973 -0.000000 -32.862282
LeftUpLeg 0.992684 13.338513 2.068104
LeftLeg -6.380642 -0.000000 0.000000
LeftFoot -20.634331 29.662903 -12.017443
LeftToeBase 26.862381 -0.000000 -0.000000
RightUpLeg 0.048974 -9.047088 1.840351
RightLeg -3.708617 -0.000000 0.000000
RightFoot -20.218582 -25.038401 14.751279
RightToeBase 23.638529 -0.000000 -0.000000
515
root 18.650730 35.516854 -22.116142 -172.781000 -0.947733 -178.103739
Spine -21.917195 -15.251866 5.617261
Head 7.067430 10.317070 3.255988
LeftShoulder 109.328231 -75.813952 -64.301384
LeftArm 46.628007 42.202962 -97.755249
LeftForeArm 32.955770 -0.000000 75.022278
LeftHand -2.441934 0.000000 -9.601707
LeftHandThumb1 -26.253704 0.000000 33.147579
RightShoulder 11.705094 3.241637 5.908280
RightArm 47.644930 -14.265130 58.417786
RightForeArm 36.123547 -0.000000 132.718397
RightHand 4.288678 -0.000000 -5.822203
RightHandThumb1 -24.326973 -0.000000 -32.862282
LeftUpLeg 1.006065 13.324961 2.081223
LeftLeg -6.366159 -0.000000 0.000000
LeftFoot -20.647987 29.685107 -12.019164
LeftToeBase 26.855792 -0.000000 -0.000000
RightUpLeg 0.059975 -9.041863 1.846332
RightLeg -3.692586 -0.000000 0.000000
RightFoot -20.235470 -25.022973 14.775834
RightToeBase 23.632845 -0.000000 -0.000000
